<svg xmlns="http://www.w3.org/2000/svg" width="1600" height="820" viewBox="0 0 1600 820">
<rect width="100%" height="100%" fill="white"/>
<defs><marker id="arrow" markerWidth="12" markerHeight="12" refX="10" refY="6" orient="auto"><path d="M2,2 L10,6 L2,10 Z" fill="#718096"/></marker></defs>
<text x="60" y="72" text-anchor="start" font-family="Noto Serif CJK SC, SimSun, serif" font-size="38" font-weight="700" fill="#1A202C">证据约束型 ESG 长文档结构化抽取技术路线</text>
<rect x="80" y="190" width="250" height="90" rx="8" fill="#FFFFFF" stroke="#2F7D5A" stroke-width="3"/>
<text x="205" y="227" text-anchor="middle" font-family="Noto Serif CJK SC, SimSun, serif" font-size="24" font-weight="700" fill="#1A202C">原始 PDF</text>
<text x="205" y="257" text-anchor="middle" font-family="Noto Serif CJK SC, SimSun, serif" font-size="24" font-weight="400" fill="#1A202C">200份报告</text>
<path d="M 330 235.0 L 360 235.0" stroke="#718096" stroke-width="3" fill="none" marker-end="url(#arrow)"/>
<rect x="378" y="190" width="250" height="90" rx="8" fill="#FFFFFF" stroke="#2B6CB0" stroke-width="3"/>
<text x="503" y="227" text-anchor="middle" font-family="Noto Serif CJK SC, SimSun, serif" font-size="24" font-weight="700" fill="#1A202C">MinerU解析</text>
<text x="503" y="257" text-anchor="middle" font-family="Noto Serif CJK SC, SimSun, serif" font-size="24" font-weight="400" fill="#1A202C">JSON/Markdown</text>
<path d="M 628 235.0 L 658 235.0" stroke="#718096" stroke-width="3" fill="none" marker-end="url(#arrow)"/>
<rect x="676" y="190" width="250" height="90" rx="8" fill="#FFFFFF" stroke="#B7791F" stroke-width="3"/>
<text x="801" y="227" text-anchor="middle" font-family="Noto Serif CJK SC, SimSun, serif" font-size="24" font-weight="700" fill="#1A202C">内容块建模</text>
<text x="801" y="257" text-anchor="middle" font-family="Noto Serif CJK SC, SimSun, serif" font-size="24" font-weight="400" fill="#1A202C">页码与块号</text>
<path d="M 926 235.0 L 956 235.0" stroke="#718096" stroke-width="3" fill="none" marker-end="url(#arrow)"/>
<rect x="974" y="190" width="250" height="90" rx="8" fill="#FFFFFF" stroke="#4A5568" stroke-width="3"/>
<text x="1099" y="227" text-anchor="middle" font-family="Noto Serif CJK SC, SimSun, serif" font-size="24" font-weight="700" fill="#1A202C">ESG-65指标</text>
<text x="1099" y="257" text-anchor="middle" font-family="Noto Serif CJK SC, SimSun, serif" font-size="24" font-weight="400" fill="#1A202C">三类字段</text>
<path d="M 1224 235.0 L 1254 235.0" stroke="#718096" stroke-width="3" fill="none" marker-end="url(#arrow)"/>
<rect x="1272" y="190" width="250" height="90" rx="8" fill="#FFFFFF" stroke="#C2413B" stroke-width="3"/>
<text x="1397" y="227" text-anchor="middle" font-family="Noto Serif CJK SC, SimSun, serif" font-size="24" font-weight="700" fill="#1A202C">report-indicator</text>
<text x="1397" y="257" text-anchor="middle" font-family="Noto Serif CJK SC, SimSun, serif" font-size="24" font-weight="400" fill="#1A202C">13000任务</text>
<path d="M 1397.0 280 C 1397.0 340, 205.0 300, 205.0 362" stroke="#718096" stroke-width="3" fill="none" marker-end="url(#arrow)"/>
<rect x="80" y="380" width="250" height="90" rx="8" fill="#FFFFFF" stroke="#2F7D5A" stroke-width="3"/>
<text x="205" y="417" text-anchor="middle" font-family="Noto Serif CJK SC, SimSun, serif" font-size="24" font-weight="700" fill="#1A202C">候选证据召回</text>
<text x="205" y="447" text-anchor="middle" font-family="Noto Serif CJK SC, SimSun, serif" font-size="24" font-weight="400" fill="#1A202C">Top-k证据</text>
<path d="M 330 425.0 L 360 425.0" stroke="#718096" stroke-width="3" fill="none" marker-end="url(#arrow)"/>
<rect x="378" y="380" width="250" height="90" rx="8" fill="#FFFFFF" stroke="#2B6CB0" stroke-width="3"/>
<text x="503" y="417" text-anchor="middle" font-family="Noto Serif CJK SC, SimSun, serif" font-size="24" font-weight="700" fill="#1A202C">约束抽取</text>
<text x="503" y="447" text-anchor="middle" font-family="Noto Serif CJK SC, SimSun, serif" font-size="24" font-weight="400" fill="#1A202C">JSON Schema</text>
<path d="M 628 425.0 L 658 425.0" stroke="#718096" stroke-width="3" fill="none" marker-end="url(#arrow)"/>
<rect x="676" y="380" width="250" height="90" rx="8" fill="#FFFFFF" stroke="#B7791F" stroke-width="3"/>
<text x="801" y="417" text-anchor="middle" font-family="Noto Serif CJK SC, SimSun, serif" font-size="24" font-weight="700" fill="#1A202C">后处理</text>
<text x="801" y="447" text-anchor="middle" font-family="Noto Serif CJK SC, SimSun, serif" font-size="24" font-weight="400" fill="#1A202C">字段修复</text>
<path d="M 926 425.0 L 956 425.0" stroke="#718096" stroke-width="3" fill="none" marker-end="url(#arrow)"/>
<rect x="974" y="380" width="250" height="90" rx="8" fill="#FFFFFF" stroke="#4A5568" stroke-width="3"/>
<text x="1099" y="417" text-anchor="middle" font-family="Noto Serif CJK SC, SimSun, serif" font-size="24" font-weight="700" fill="#1A202C">质量诊断</text>
<text x="1099" y="447" text-anchor="middle" font-family="Noto Serif CJK SC, SimSun, serif" font-size="24" font-weight="400" fill="#1A202C">风险样本</text>
<path d="M 1224 425.0 L 1254 425.0" stroke="#718096" stroke-width="3" fill="none" marker-end="url(#arrow)"/>
<rect x="1272" y="380" width="250" height="90" rx="8" fill="#FFFFFF" stroke="#C2413B" stroke-width="3"/>
<text x="1397" y="417" text-anchor="middle" font-family="Noto Serif CJK SC, SimSun, serif" font-size="24" font-weight="700" fill="#1A202C">Streamlit复核</text>
<text x="1397" y="447" text-anchor="middle" font-family="Noto Serif CJK SC, SimSun, serif" font-size="24" font-weight="400" fill="#1A202C">闭环展示</text>
<text x="80" y="750" text-anchor="start" font-family="Noto Serif CJK SC, SimSun, serif" font-size="22" font-weight="400" fill="#4A5568">流程图遵循 Figure Contract：每个节点对应可追溯的数据文件或输出表。</text>
</svg>